<svg xmlns="http://www.w3.org/2000/svg" version="1.1" xmlns:xlink="http://www.w3.org/1999/xlink" xmlns:svgjs="http://svgjs.dev/svgjs" viewBox="0 0 800 800" opacity="0.34"><defs><filter id="bbburst-blur-1" x="-100%" y="-100%" width="400%" height="400%"><feGaussianBlur in="SourceGraphic" stdDeviation="1"></feGaussianBlur></filter><filter id="bbburst-blur-2" x="-100%" y="-100%" width="400%" height="400%"><feGaussianBlur in="SourceGraphic" stdDeviation="2"></feGaussianBlur></filter><filter id="bbburst-blur-3" x="-100%" y="-100%" width="400%" height="400%"><feGaussianBlur in="SourceGraphic" stdDeviation="4"></feGaussianBlur></filter><filter id="bbburst-blur-4" x="-100%" y="-100%" width="400%" height="400%"><feGaussianBlur in="SourceGraphic" stdDeviation="12"></feGaussianBlur></filter><symbol id="bbburst-shape-1" viewBox="0 0 194 167"><path d="m97 0 96.129 166.5H.871L97 0Z"></path></symbol><symbol id="bbburst-shape-4" viewBox="0 0 149 143"><path d="M71.647 2.781c.898-2.764 4.808-2.764 5.706 0l15.445 47.534a3 3 0 0 0 2.853 2.073h49.98c2.906 0 4.115 3.719 1.764 5.427L106.96 87.193a2.999 2.999 0 0 0-1.09 3.354l15.445 47.534c.898 2.764-2.266 5.062-4.617 3.354l-40.435-29.378a3 3 0 0 0-3.526 0l-40.435 29.378c-2.351 1.708-5.515-.59-4.617-3.354L43.13 90.547a3 3 0 0 0-1.09-3.354L1.605 57.815c-2.35-1.708-1.142-5.427 1.764-5.427h49.98a3 3 0 0 0 2.853-2.073L71.647 2.781Z"></path></symbol><symbol id="bbburst-shape-6" viewBox="0 0 133 116"><path d="M59.7487 10.2513c-13.6683-13.66839-35.8291-13.66839-49.4974 0-13.66839 13.6683-13.66839 35.8291 0 49.4974l49.4974-49.4974ZM66.5 66.5 41.7513 91.2487 66.5 115.997l24.7487-24.7483L66.5 66.5Zm56.249-6.7513c13.668-13.6683 13.668-35.8291 0-49.4974-13.669-13.66839-35.8294-13.66839-49.4977 0l49.4977 49.4974Zm-112.4977 0 31.5 31.5 49.4974-49.4974-31.5-31.5-49.4974 49.4974Zm80.9974 31.5 31.5003-31.5-49.4977-49.4974-31.5 31.5 49.4974 49.4974Z"></path></symbol><symbol id="bbburst-shape-8" viewBox="0 0 87 168"><path d="m12 12 31.2546 18.0749c16.4102 9.4902 20.014 31.6325 7.4603 45.8369L36.3296 92.1884c-12.5684 14.2206-8.9394 36.3916 7.5068 45.8636L75 156" stroke-width="14" stroke-linecap="round" stroke-linejoin="round"></path></symbol><symbol id="bbburst-shape-10" viewBox="0 0 145 145"><circle cx="72.5" cy="72.5" r="61.5" fill="none" stroke-width="22"></circle></symbol><symbol id="bbburst-shape-12" viewBox="0 0 170 151"><path d="M69.3728 54.2122 85 10.0031l15.627 44.2091c1.413 3.9958 5.19 6.6672 9.428 6.6673h49.312l-39.149 26.1447c-3.803 2.5401-5.399 7.3367-3.875 11.6488l15.179 42.94-40.9683-27.36c-3.3621-2.245-7.7453-2.245-11.1074 0l-40.9682 27.36 15.1785-42.94c1.5243-4.3121-.0712-9.1087-3.8746-11.6488L10.6333 60.8795h49.3112c4.2381-.0001 8.0159-2.6715 9.4283-6.6673Z" stroke-width="12"></path></symbol></defs><use xlink:href="#bbburst-shape-12" width="55.44906272992758" opacity="0.511394333328802" transform="matrix(0.996403182362473,-0.08473900033595082,0.08473900033595082,0.996403182362473,568.9109752991264,61.92905047740419)" fill="none" stroke="#22c55e" filter="url(#bbburst-blur-1)"></use><use xlink:href="#bbburst-shape-4" width="49.00109073985501" opacity="0.48823831820576835" transform="matrix(0.9978025310392862,0.06625789803181421,-0.06625789803181421,0.9978025310392862,326.034395486207,-212.80135004406674)" fill="#00d0ff" filter="url(#bbburst-blur-1)"></use><use xlink:href="#bbburst-shape-6" width="18.803373774582425" opacity="0.8974741006283304" transform="matrix(0.9415857477262355,0.33677333575986385,-0.33677333575986385,0.9415857477262355,853.9778396286412,-306.6909595165331)" fill="#b700ff"></use><use xlink:href="#bbburst-shape-8" width="73.4127126571062" opacity="0.266165086992286" transform="matrix(0.7946677718363262,-0.6070445884815123,0.6070445884815123,0.7946677718363262,421.9739918006325,430.54849790165747)" fill="none" stroke="#b700ff" filter="url(#bbburst-blur-2)"></use><use xlink:href="#bbburst-shape-8" width="31.102712967279622" opacity="0.7373463226865531" transform="matrix(0.853022426328639,0.5218742570585386,-0.5218742570585386,0.853022426328639,962.7451186909357,-88.7195310630866)" fill="none" stroke="#00d0ff"></use><use xlink:href="#bbburst-shape-6" width="52.772967224123974" opacity="0.6200383406345685" transform="matrix(0.9181244024804389,0.39629229309934483,-0.39629229309934483,0.9181244024804389,662.4181803274516,-112.2700104325005)" fill="#22c55e" filter="url(#bbburst-blur-1)"></use><use xlink:href="#bbburst-shape-1" width="58.189037031334195" opacity="0.20318295392693875" transform="matrix(0.9938953228481495,-0.1103271826005386,0.1103271826005386,0.9938953228481495,-2.5602396416777538,-73.77895025239752)" fill="#00d0ff" filter="url(#bbburst-blur-3)"></use><use xlink:href="#bbburst-shape-6" width="35.646360517173875" opacity="0.7104181786276753" transform="matrix(0.9869506935044732,0.16102275799103496,-0.16102275799103496,0.9869506935044732,593.0907722563732,-258.0793700876895)" fill="#22c55e"></use><use xlink:href="#bbburst-shape-10" width="67.00641269176315" opacity="0.4992051622693935" transform="matrix(0.899099441385052,-0.43774443971464366,0.43774443971464366,0.899099441385052,303.55498736778276,62.43708889831464)" fill="none" stroke="#00d0ff" filter="url(#bbburst-blur-1)"></use><use xlink:href="#bbburst-shape-8" width="61.27211172764138" opacity="0.40846878318020885" transform="matrix(0.8516343231971223,0.5241364131145436,-0.5241364131145436,0.8516343231971223,901.2967594368115,229.07144577729946)" fill="none" stroke="#b700ff" filter="url(#bbburst-blur-2)"></use><use xlink:href="#bbburst-shape-8" width="73.4294882298073" opacity="0.2635062243649702" transform="matrix(0.7642566357012093,0.6449122380500071,-0.6449122380500071,0.7642566357012093,299.5859432384828,-234.2144676042907)" fill="none" stroke="#2c2891" filter="url(#bbburst-blur-2)"></use><use xlink:href="#bbburst-shape-10" width="39.57755947351241" opacity="0.7243568181904982" transform="matrix(0.9988075132961083,-0.04882162823221392,0.04882162823221392,0.9988075132961083,650.6965122594639,-145.8178008503363)" fill="none" stroke="#b700ff"></use><use xlink:href="#bbburst-shape-4" width="44.365729119852475" opacity="0.7197687695083937" transform="matrix(0.9998952185874158,-0.014475905706515704,0.014475905706515704,0.9998952185874158,584.6878363867339,-191.1918219756038)" fill="#00a19d"></use><use xlink:href="#bbburst-shape-1" width="74.75591431991374" opacity="0.34601910598284247" transform="matrix(0.7460715360499264,0.6658657996143843,-0.6658657996143843,0.7460715360499264,416.93118039803477,-119.5960930500222)" fill="#22c55e" filter="url(#bbburst-blur-2)"></use><use xlink:href="#bbburst-shape-8" width="42.842759617845275" opacity="0.6132774501197529" transform="matrix(0.7896459315630031,0.613562794476651,-0.613562794476651,0.7896459315630031,679.711247758959,-161.98706702111528)" fill="none" stroke="#00d0ff" filter="url(#bbburst-blur-1)"></use><use xlink:href="#bbburst-shape-4" width="25.762130120727956" opacity="0.8074809582270114" transform="matrix(0.7864767623914442,0.6176198687042637,-0.6176198687042637,0.7864767623914442,1000.1230434080446,-133.55484673807058)" fill="#00d0ff"></use><use xlink:href="#bbburst-shape-8" width="62.24009907603054" opacity="0.3770959614888083" transform="matrix(0.7561290070096299,0.6544225888205808,-0.6544225888205808,0.7561290070096299,605.8849283255026,125.60221918692088)" fill="none" stroke="#2c2891" filter="url(#bbburst-blur-2)"></use><use xlink:href="#bbburst-shape-8" width="67.1151410356096" opacity="0.005377309063210101" transform="matrix(0.7488212672701593,-0.6627719892119104,0.6627719892119104,0.7488212672701593,-203.11069927919874,416.3160985081739)" fill="none" stroke="#00d0ff" filter="url(#bbburst-blur-3)"></use><use xlink:href="#bbburst-shape-10" width="63.01678215995862" opacity="0.15288292909851342" transform="matrix(0.9673727577412718,-0.25335735154134864,0.25335735154134864,0.9673727577412718,-11.334159623477632,126.87202914521487)" fill="none" stroke="#00d0ff" filter="url(#bbburst-blur-3)"></use><use xlink:href="#bbburst-shape-8" width="18.778202126063306" opacity="0.862490234383375" transform="matrix(0.8908968502775482,-0.45420568266540196,0.45420568266540196,0.8908968502775482,570.318207735672,-220.42024886145515)" fill="none" stroke="#2c2891"></use><use xlink:href="#bbburst-shape-1" width="20.51307365544892" opacity="0.8958859484798655" transform="matrix(0.8121892623243697,0.5833940367924549,-0.5833940367924549,0.8121892623243697,924.2464271311674,-304.64529238900434)" fill="#22c55e"></use><use xlink:href="#bbburst-shape-8" width="52.84656192590574" opacity="0.21101161100676347" transform="matrix(0.9829015404259446,-0.18413191420366312,0.18413191420366312,0.9829015404259446,385.08083395185065,334.95561649484614)" fill="none" stroke="#2c2891" filter="url(#bbburst-blur-3)"></use><use xlink:href="#bbburst-shape-6" width="46.71773987862433" opacity="0.4283472530524213" transform="matrix(0.9960588218631434,0.0886951147956121,-0.0886951147956121,0.9960588218631434,243.9993420310904,-337.8678403352739)" fill="#00d0ff" filter="url(#bbburst-blur-2)"></use><use xlink:href="#bbburst-shape-12" width="34.804001243597426" opacity="0.5439549938452342" transform="matrix(0.8165666065452707,-0.5772512252695017,0.5772512252695017,0.8165666065452707,502.8843327274567,136.44146578368702)" fill="none" stroke="#22c55e" filter="url(#bbburst-blur-1)"></use><use xlink:href="#bbburst-shape-8" width="67.87636176826886" opacity="0.3422866140036963" transform="matrix(0.9974492697243819,0.07137894876150379,-0.07137894876150379,0.9974492697243819,240.13752412371016,-47.781735257114974)" fill="none" stroke="#00d0ff" filter="url(#bbburst-blur-2)"></use><use xlink:href="#bbburst-shape-10" width="74.9645305913102" opacity="0.10606387593446776" transform="matrix(0.7832089872003767,-0.6217585402457776,0.6217585402457776,0.7832089872003767,-7.513924859772544,430.29916430996184)" fill="none" stroke="#22c55e" filter="url(#bbburst-blur-3)"></use><use xlink:href="#bbburst-shape-8" width="49.06052530245049" opacity="0.2537912848309365" transform="matrix(0.7828002721606286,-0.6222730380670898,0.6222730380670898,0.7828002721606286,63.719287423139065,283.2167234651128)" fill="none" stroke="#00a19d" filter="url(#bbburst-blur-2)"></use><use xlink:href="#bbburst-shape-1" width="17.028823877246747" opacity="0.9657612774267014" transform="matrix(0.9834701926334182,-0.1810700974804715,0.1810700974804715,0.9834701926334182,701.2641469964141,-362.6612273201864)" fill="#00d0ff"></use><use xlink:href="#bbburst-shape-8" width="41.197361915185525" opacity="0.6489741959338023" transform="matrix(0.9957413020344674,-0.09219142814114256,0.09219142814114256,0.9957413020344674,682.8431844094181,-50.497584483069716)" fill="none" stroke="#00a19d" filter="url(#bbburst-blur-1)"></use><use xlink:href="#bbburst-shape-12" width="26.407645038386146" opacity="0.8456430876412881" transform="matrix(0.9839810149389633,-0.1782732796570694,0.1782732796570694,0.9839810149389633,566.3262715416328,-352.3423183899994)" fill="none" stroke="#00d0ff"></use><use xlink:href="#bbburst-shape-8" width="57.670644586344025" opacity="0.5034606405531984" transform="matrix(0.9762778814503883,-0.2165213573547461,0.2165213573547461,0.9762778814503883,289.90605999131543,-83.83091377172644)" fill="none" stroke="#00a19d" filter="url(#bbburst-blur-1)"></use><use xlink:href="#bbburst-shape-8" width="32.84789151972156" opacity="0.7894217182728049" transform="matrix(0.9255197800893943,0.37869926942533083,-0.37869926942533083,0.9255197800893943,758.9259178407065,-262.8975171021267)" fill="none" stroke="#00d0ff"></use><use xlink:href="#bbburst-shape-6" width="53.20077225703535" opacity="0.5738750948370306" transform="matrix(0.9221880658371553,-0.3867417371160327,0.3867417371160327,0.9221880658371553,198.67343387663655,-300.15412597513756)" fill="#00d0ff" filter="url(#bbburst-blur-1)"></use><use xlink:href="#bbburst-shape-10" width="31.453152334809246" opacity="0.7777921176830593" transform="matrix(0.9968989968849731,0.078691740416225,-0.078691740416225,0.9968989968849731,597.2071110072397,-360.0723694714117)" fill="none" stroke="#00d0ff"></use><use xlink:href="#bbburst-shape-6" width="18.77023607770502" opacity="0.8464256045726717" transform="matrix(0.9997899291709645,0.020496280841109167,-0.020496280841109167,0.9997899291709645,687.5988397915058,-294.20262669270795)" fill="#00d0ff"></use><use xlink:href="#bbburst-shape-4" width="69.65133280784465" opacity="0.3681881257716014" transform="matrix(0.9997179109089708,-0.02375076015211345,0.02375076015211345,0.9997179109089708,489.42111375140354,173.9688451842698)" fill="#2c2891" filter="url(#bbburst-blur-2)"></use><use xlink:href="#bbburst-shape-12" width="44.16735041625837" opacity="0.6884984774823562" transform="matrix(0.8360614350623544,0.5486358325897759,-0.5486358325897759,0.8360614350623544,693.5872766720273,-296.5157931588729)" fill="none" stroke="#2c2891"></use><use xlink:href="#bbburst-shape-8" width="24.845162116914057" opacity="0.7962189911088078" transform="matrix(0.9353538376651848,0.3537134410296155,-0.3537134410296155,0.9353538376651848,818.9697547796109,-207.5713814821989)" fill="none" stroke="#00a19d"></use><use xlink:href="#bbburst-shape-4" width="18.10092663808122" opacity="0.9402103752035574" transform="matrix(0.8689683593415759,0.49486764944094885,-0.49486764944094885,0.8689683593415759,935.0119099426637,-328.7510563083553)" fill="#2c2891"></use><use xlink:href="#bbburst-shape-8" width="16.443197753266297" opacity="0.9141401845767824" transform="matrix(0.9622790447073911,0.2720644043549814,-0.2720644043549814,0.9622790447073911,878.7568191930345,-304.1969038236562)" fill="none" stroke="#2c2891"></use><use xlink:href="#bbburst-shape-8" width="47.28748928688226" opacity="0.6263466587957188" transform="matrix(0.9210246266305635,0.38950434803738865,-0.38950434803738865,0.9210246266305635,759.144987988845,-47.41666745065646)" fill="none" stroke="#00a19d" filter="url(#bbburst-blur-1)"></use></svg>