<svg xmlns="http://www.w3.org/2000/svg" version="1.1" xmlns:xlink="http://www.w3.org/1999/xlink" xmlns:svgjs="http://svgjs.dev/svgjs" viewBox="0 0 800 800"><g transform="matrix(1,0,0,1,0,0)"><rect width="100" height="100" x="634" y="634" stroke-width="4" stroke="#00d0ff" fill="none" opacity="0.01" transform="rotate(90, 400, 400)"></rect><rect width="120" height="120" x="595.6" y="595.6" stroke-width="5.2" stroke="#22cbff" fill="none" opacity="0.109" transform="rotate(81, 400, 400)"></rect><rect width="140" height="140" x="557.2" y="557.2" stroke-width="6.4" stroke="#30c6ff" fill="none" opacity="0.20800000000000002" transform="rotate(72, 400, 400)"></rect><rect width="160" height="160" x="518.8" y="518.8" stroke-width="7.6" stroke="#3bc1ff" fill="none" opacity="0.30700000000000005" transform="rotate(63, 400, 400)"></rect><rect width="180" height="180" x="480.4" y="480.4" stroke-width="8.8" stroke="#44bbff" fill="none" opacity="0.406" transform="rotate(54, 400, 400)"></rect><rect width="200" height="200" x="442" y="442" stroke-width="10" stroke="#4cb6ff" fill="none" opacity="0.505" transform="rotate(45, 400, 400)"></rect><rect width="220" height="220" x="403.6" y="403.6" stroke-width="11.2" stroke="#53b0ff" fill="none" opacity="0.6040000000000001" transform="rotate(36, 400, 400)"></rect><rect width="240" height="240" x="365.20000000000005" y="365.20000000000005" stroke-width="12.4" stroke="#5aaaff" fill="none" opacity="0.7030000000000001" transform="rotate(27, 400, 400)"></rect><rect width="260" height="260" x="326.8" y="326.8" stroke-width="13.6" stroke="#60a4ff" fill="none" opacity="0.802" transform="rotate(18, 400, 400)"></rect><rect width="280" height="280" x="288.4" y="288.4" stroke-width="14.799999999999999" stroke="#669eff" fill="none" opacity="0.901" transform="rotate(9, 400, 400)"></rect><rect width="300" height="300" x="250" y="250" stroke-width="16" stroke="#6b97ff" fill="none" opacity="1" transform="rotate(0, 400, 400)"></rect></g></svg>