<svg xmlns="http://www.w3.org/2000/svg" version="1.1" xmlns:xlink="http://www.w3.org/1999/xlink" xmlns:svgjs="http://svgjs.dev/svgjs" viewBox="0 0 800 800"><defs><linearGradient x1="50%" y1="0%" x2="50%" y2="100%" id="wwwhirl-grad"><stop stop-color="#00d0ff" stop-opacity="1" offset="45%"></stop><stop stop-color="#b700ff" stop-opacity="1" offset="100%"></stop></linearGradient></defs><g stroke-width="1" stroke="url(#wwwhirl-grad)" fill="none" stroke-linecap="round"><path d="M-267.00006403836323 507.42635319889513C-251.84097270870984 484.9151025743598 -176.04551606044274 337.3413484801838 -145.72733340113592 327.33634820261256C-115.40915074182911 317.3313479250413 -54.772785423215396 421.24691898981547 -24.45460276390861 427.38635097832514C5.863579895398175 433.52578296683475 66.49994521401186 365.3098719833944 96.8181278733187 376.45180411068964C127.1363105326256 387.5937362379849 187.77267585123923 528.3458992338168 218.090858510546 516.5218079966871C248.4090411698529 504.69771675955747 309.04540648846637 289.13543805188596 339.36358914777327 281.8590742136523C369.68177180708017 274.5827103754187 430.31813712569374 453.30839715203246 460.63631978500064 458.31089729081805C490.95450244430754 463.3133974296037 551.5908677629212 314.3753251157589 581.909050422228 321.87907532393734C612.2272330815347 329.3828255321158 672.8635984001485 520.3873762857488 703.1817810594553 518.3408989562456C733.499963718762 516.2944216267424 794.1363290373758 306.87157490758045 824.4545116966826 305.50725668791165C854.7726943559894 304.14293846824285 915.4090596746032 507.88112593878475 945.7272423339098 507.42635319889513C976.0454249932166 506.9715804590055 1051.8408816414835 327.5637345725574 1066.9999729711371 301.86907476879486 " transform="rotate(174, 400, 400)"></path><path d="M-255.50006411812507 505.57415253075936C-240.60233643208642 483.45102691699196 -166.11369800189289 338.4216478934052 -136.31824262981547 328.58914762061966C-106.52278725773812 318.7566473478341 -46.93187651358335 420.8805706356294 -17.136421141505934 426.91415034847506C12.659034230571478 432.9477300613207 72.24994497472625 365.90795547414655 102.04540034680366 376.85778532338503C131.84085571888113 387.80761517262346 191.43176646303584 526.1330167374928 221.22722183511337 514.5127891423826C251.02267720719078 502.8925615472724 310.6135879513455 291.0468738518021 340.4090433234229 283.89596456250354C370.2044986955002 276.74505527320497 429.79540943965503 452.3892646916012 459.59086481173244 457.305514827994C489.38632018380986 462.2217649643868 548.9772309279648 315.8515904490565 578.772686300042 323.2259656536457C608.5681416721194 330.60034085823486 668.1590524162742 518.3117097023224 697.9545077883516 516.3005164647072C727.7499631604292 514.289323227092 787.340873904584 308.4772152444674 817.1363292766614 307.1364197527239C846.9317846487386 305.7956242609804 906.5226953928936 506.0210843613405 936.3181507649708 505.57415253075936C966.1136061370482 505.1272207001782 1040.6022445672418 328.8126135359102 1055.4999722532805 303.5609651080746 " transform="rotate(171, 400, 400)"></path><path d="M-244.00006419788696 503.7220128977799C-229.36370015546296 481.98701229478024 -156.181879943343 339.50200834178275 -126.90915185849508 329.84200807378295C-97.6364237736471 320.1820078057831 -39.090967603951185 420.5142833165995 -9.818239519103201 426.44201075378123C19.454488565744782 432.36973819096295 77.99994473544069 366.506100000055 107.27267282028873 377.2638275712367C136.54540090513672 388.02155514241826 195.09085707483263 523.920195276325 224.3635851596806 512.5038313232343C253.63631324452854 501.0874673701436 312.1817694142244 292.9583706868745 341.45449749907243 285.932915946511C370.7272255839205 278.90746120614745 429.2726817536163 451.47019326632625 458.54540983846437 456.3001934003262C487.8181379233123 461.13019353432605 546.3635940930084 317.3279168175104 575.6363221778563 324.5729170185103C604.9090502627041 331.81791721951015 663.4545064324002 516.2361041540523 692.7272345172481 514.2601950083251C721.9999626020958 512.2842858625979 780.5454187717921 310.08291661651054 809.8181468566399 308.7656438526924C839.090874941488 307.44837108887424 897.6363311111841 504.16110381905264 926.9090591960319 503.7220128977799C956.1817872808797 503.28292197650717 1029.3636074929996 330.0615535344193 1043.9999715354238 305.2529164825106 " transform="rotate(168, 400, 400)"></path><path d="M-232.5000642776488 501.86983511782773C-218.12506387883954 480.522959525596 -146.25006188479313 340.5823306431877 -117.50006108717463 331.0948303799736C-88.7500602895561 321.60733011675944 -31.250058694319023 420.14795785059704 -2.5000578967004685 425.9698330121148C26.24994290091803 431.7917081736325 83.74994449615514 367.1042063789908 112.49994529377369 377.6698316721156C141.24994609139225 388.2354569652404 198.74994768662935 521.7073356681846 227.49994848424785 510.4948353571133C256.2499492818665 499.282335046042 313.7499508771034 294.8698293749742 342.49995167472207 287.96982918354576C371.2499524723406 281.0698289921173 428.7499540675776 450.55108369407867 457.4999548651963 455.2948338256857C486.24995566281484 460.03858395729276 543.7499572580518 318.80420503899165 572.4999580556705 325.9198302364022C601.249958853289 333.03545543381284 658.749960448526 514.1604604588097 687.4999612461445 512.2198354049704C716.2499620437629 510.27921035113116 773.7499636390003 311.68857984158103 802.4999644366187 310.39482980568823C831.2499652342374 309.1010797697954 888.7499668294743 502.301085129792 917.4999676270929 501.86983511782773C946.2499684247114 501.43858510586347 1018.1249704187576 331.3104553859557 1032.499970817567 306.944829709974 " transform="rotate(165, 400, 400)"></path><path d="M-221.00006435741065 500.01762682029744C-206.8864276022161 479.0588762388335 -136.3182438262433 341.6626224270145 -108.09097031585418 332.3476221685861C-79.86369680546508 323.0326219101577 -23.40914978468686 419.7816018670164 4.818123725702208 425.49762475287014C33.04539723609139 431.21364763872396 89.49994425686958 367.70228224034844 117.72721776725876 378.07580525541647C145.9544912776479 388.44932827048444 202.40903829842603 519.4944455424659 230.6363118088152 508.48580887341416C258.8635853192043 497.47717220436243 315.3181323399825 296.7812575454958 343.5454058503716 290.00671190300244C371.7726793607608 283.232166260509 428.2272263815389 449.63194360425285 456.4544998919281 454.28944373346707C484.6817734023173 458.9469438626813 541.1363204230955 320.28046274289477 569.3635939334845 327.26671293671603C597.5908674438737 334.25296313053735 654.0454144646518 512.0847862459888 682.272687975041 510.1794452840375C710.49996148543 508.27410432208626 766.9545085062084 313.29421254907345 795.1817820165975 312.02398524110595C823.4090555269865 310.75375793313844 879.8636025477649 500.44103592295323 908.090876058154 500.01762682029744C936.318149568543 499.5942177176416 1006.8863333445158 332.559326719914 1020.9999700997103 308.63671241985924 " transform="rotate(162, 400, 400)"></path><path d="M-209.5000644371725 498.16544904034527C-195.64779132559266 477.5948234696492 -126.38642576769342 342.74294472841945 -98.68187954453376 333.60044447477674C-70.97733332137409 324.457944221134 -15.568240875054698 419.4152764010139 12.136305348104997 425.0254470112037C39.840851571264636 430.6356176213935 95.24994401758403 368.30038861928426 122.95449024074372 378.4818093562954C150.65903646390348 388.6632300933066 206.0681289102228 517.2815859343254 233.7726751333825 506.47681290729315C261.47722135654226 495.6720398802609 316.88631380286154 298.69271623359555 344.59086002602123 292.0436251400372C372.2954062491809 285.3945340464789 427.7044986955002 448.7128340320052 455.40904491866 453.28408415882654C483.1135911418197 457.8553342856479 538.5226835881391 321.75675096437595 566.2272298112987 328.61362615460797C593.9317760344584 335.47050134484 649.3408684807778 510.00914255074605 677.0454147039375 508.1390856806828C704.749960927097 506.2690288106195 760.1590533734166 314.89987577414394 787.8635995965763 313.6531711941018C815.568145819736 312.4064666140596 870.9772382660553 498.5810172336927 898.681784489215 498.16544904034527C926.3863307123745 497.7498808469978 995.6476962702739 333.80822857145046 1009.4999693818536 310.3286256473226 " transform="rotate(159, 400, 400)"></path><path d="M-198.00006451693434 496.31322166932864C-184.40915504896924 476.1307211094005 -116.45460770914354 343.8232174387599 -89.27278877321334 334.8532171899029C-62.09096983728307 325.88321694104593 -7.727331965422536 419.0489013439469 19.454486970507674 424.55321967847283C46.63630590643788 430.05753801299863 100.99994377829847 368.8984454071556 128.18176271422874 378.88776386610994C155.36358165015906 388.8770823250643 209.72721952201954 515.0686767351206 236.90903845794975 504.46776735010775C264.09085739388 493.86685796509494 318.45449526574043 300.6041253306308 345.63631420167076 294.08048878600755C372.8181331376011 287.55685224138426 427.1817710094615 447.7936748686932 454.3635899453918 452.2786749931216C481.54540888132215 456.7636751175502 535.9090467531827 323.23298959479274 563.0908656891129 329.96048978143546C590.2726846250431 336.6879899680782 644.6363224969037 507.9334492644389 671.8181414328338 506.09867648626357C698.999960368764 504.26390370808826 753.3635982406248 316.50548940814997 780.545417176555 315.2823075560331C807.7272361124851 314.05912570391627 862.0908739843458 496.7209489533676 889.2726929202761 496.31322166932864C916.4545118562062 495.9054943852897 984.4090591960316 335.0570808319224 997.9999686639969 312.02048928372153 " transform="rotate(156, 400, 400)"></path><path d="M-186.50006459669623 494.4610705922574C-173.17051877234582 474.666695043097 -106.52278965059372 344.9035664430457 -79.86369800189289 336.1060661989744C-53.20460635319208 327.30856595490314 0.11357694420959774 418.68260258082523 26.772668592910406 424.08106863968715C53.431760241611244 429.47953469854906 106.74994353901292 369.4965784889722 133.40903518771376 379.2937946698698C160.06812683641465 389.09101085076736 213.3863101338162 512.855843829861 240.0454017825171 502.45879808686766C266.704493431218 492.06175234387433 320.02267672861956 302.5156107216114 346.6817683773204 296.11742872592316C373.34086002602123 289.719246730235 426.6590433234229 446.8745919993264 453.31813497212363 451.273342121362C479.9772266208246 455.6720922433976 533.2954099182264 324.70930451915484 559.954501566927 331.3074297022083C586.6135932156278 337.9055548852617 639.9317765130295 505.85783227207696 666.5908681617303 504.05834358578966C693.2499598104312 502.25885489950235 746.568143107833 318.1111793361014 773.2272347565338 316.9115202119098C799.8863264052345 315.71186108771826 853.2045097026362 494.8609569669879 879.8636013513369 494.4610705922574C906.5226930000379 494.06118421752683 973.1704221217899 336.30600938633967 986.4999679461403 313.71242921406576 " transform="rotate(153, 400, 400)"></path><path d="M-175.00006467645807 492.6088928123052C-161.9318824957224 473.2026422739127 -96.59097159204384 345.9838887444506 -70.45460723057246 337.35888850516505C-44.318242869101056 328.7338882658795 7.95448585384176 418.31627711482275 34.09085021531314 423.6088908980207C60.22721457678449 428.9015046812186 112.49994329972736 370.094684867908 138.63630766119877 379.69979877074877C164.77267202267018 389.3049126735895 217.045400745613 510.6429842217205 243.1817651070844 500.44980212074665C269.3181294685558 490.25662001977275 321.59085819149846 304.4270694097111 347.7272225529699 298.154341962958C373.8635869144414 291.8816145162048 426.1363156373842 445.9554824270788 452.27267999885555 450.26798254672156C478.409044360327 454.58048266636433 530.6817730832698 326.185592740636 556.8181374447412 332.65434292010025C582.9545018062125 339.1230930995644 635.2272305291555 503.78218857683424 661.3635948906268 502.0179839824349C687.4999592520982 500.2537793880356 739.7726879750411 319.71684256117186 765.9090523365124 318.54070616490566C792.0454166979839 317.36456976863946 844.3181454209266 493.0009382777273 870.454509782398 492.6088928123052C896.5908741438693 492.2168473468831 961.9317850475479 337.5549112378761 974.9999672282836 315.4043424415291 " transform="rotate(150, 400, 400)"></path><path d="M-163.50006475621993 490.7567226617476C-150.69324621909894 471.73859713412287 -86.65915353349396 347.0642186752501 -61.04551645925204 338.6117184407502C-35.43187938501006 330.1592182062504 15.795394763473922 417.94995927821475 41.409031837715816 423.13672078574876C67.0226689119578 428.3234822932827 118.24994306044175 370.6927988762383 143.8635801346838 380.10581050102223C169.47721720892577 389.5188221258062 220.70449135740972 508.43013224297454 246.31812843165164 498.4408137840202C271.9317655058937 488.4514953250658 323.15903965437747 306.33853572720534 348.77267672861956 300.19126282938726C374.38631380286154 294.04398993156923 425.6135879513455 445.0363804842257 451.2272250255875 449.26263060147556C476.84086209982945 453.48888071872545 528.0681362483135 327.6618885915118 553.6817733225554 334.0012637673867C579.2954103967973 340.3406389432616 630.5226845452813 501.706552510986 656.1363216195232 499.97763200847464C681.749958693765 498.24871150596334 732.9772328422492 321.32251341563693 758.5908699164911 320.16989974729603C784.2045069907332 319.0172860789551 835.431781139217 491.1409272178612 861.045418213459 490.7567226617476C886.659055287701 490.37251810563396 950.6931479733057 338.80382071880706 963.4999665104269 317.096263298387 " transform="rotate(147, 400, 400)"></path><path d="M-152.0000648359818 488.90456014058446C-139.4546099424755 470.27455962372767 -76.72733547494411 348.1445562354441 -51.63642568793159 339.8645560057299C-26.545515900919042 331.5845557760158 23.636303673106056 417.58364907100133 48.727213460118605 422.66455830287134C73.8181232471311 427.7454675347414 123.9999428211562 371.29092051396316 149.0908526081688 380.5118298606903C174.18176239518135 389.7327392074174 224.3635819692064 506.21728789362317 249.454491756219 496.43183307668824C274.54540154323155 486.64637825975336 324.7272211172566 308.25000967409414 349.8181309042691 302.2281913252111C374.9090406912817 296.2063729763281 425.0908602653068 444.1172861707671 450.1817700523193 448.25728628562416C475.2726798393319 452.3972864004812 525.454499413357 329.1381920717821 550.5454092003696 335.3481922440677C575.636318987382 341.5581924163533 625.8181385614071 499.63092407453235 650.9090483484197 497.937287663909C675.9999581354322 496.24365125328563 726.1817777094575 322.9281918994965 751.27268749647 321.79910095908093C776.3635972834824 320.6700100186654 826.5454168575077 489.28092378738967 851.6363266445201 488.90456014058446C876.7272364315327 488.5281964937793 939.454510899064 340.0527378291325 951.9999657925703 318.7881917846394 " transform="rotate(144, 400, 400)"></path><path d="M-140.5000572863491 487.0523785459351C-128.21596603645753 468.81050303984614 -66.79550978699973 349.22487472215175 -42.22732728721661 341.11737449722335C-17.65914478743352 333.0098742722949 31.47722021213272 417.21731979030153 56.04540271191581 422.19237674650765C80.61358521169893 427.1674337027137 129.74995021126517 371.8890230782017 154.31813271104835 380.917830146872C178.88631521083147 389.9466372155423 228.02268021039765 504.0044244707854 252.59086271018083 494.42283329586996C277.15904520996395 484.8412421209546 326.29541020953 310.1614645474966 350.86359270931325 304.2651007475487C375.4317752090964 298.3687369476007 424.5681402086626 443.1981727838222 449.13632270844573 447.2519228962864C473.70450520822885 451.30567300875066 522.8408702077952 330.6144764785661 547.4090527075782 336.6951016472624C571.9772352073613 342.7757268159587 621.1136002069276 497.5552765645923 645.6817827067107 495.896924245857C670.2499652064937 494.2385719271216 719.3863302060602 324.53385130986976 743.9545127058432 323.4282830973795C768.5226952056263 322.32271488488925 817.6590602051924 487.4209012834318 842.2272427049757 487.0523785459351C866.7954252047587 486.68385580843835 928.2158814542165 341.3016358659717 940.4999727041081 320.48010119740553 " transform="rotate(141, 400, 400)"></path><path d="M-129.00005736611095 485.2001893218911C-116.97732975983412 467.34643882656997 -56.86369172844985 350.3051855794649 -32.81823651589622 342.3701853593222C-8.772781303342526 334.43518513917945 39.31812912176488 416.85098288020725 63.363584334318546 421.72018756074937C87.40903954687224 426.5893922412915 135.49994997197962 372.4871180130457 159.5454051845333 381.32382280365914C183.59086039708706 390.16052759427265 231.68177082219444 501.7915534185531 255.72722603474807 492.41382588565716C279.7726812473018 483.03609835276126 327.86359167240903 312.0729117915045 351.9090468849629 306.3020025404916C375.9545020975165 300.53109328947875 424.0454125226239 442.27905176748277 448.09086773517765 446.2465518775541C472.1363229477313 450.21405198762545 520.2272333728388 332.09075325595546 544.2726885853924 338.04200342106253C568.318143797946 343.99325358616954 616.4090542230535 495.47962142525785 640.4545094356071 493.85655319841044C664.4999646481607 492.23348497156303 712.5908750732683 326.13950309084845 736.6363302858219 325.0574576062835C760.6817854983757 323.9754121217186 808.772695923483 485.56087115007944 832.8181511360367 485.2001893218911C856.8636063485903 484.8395074937028 916.9772443799743 342.5505262734163 928.9999719862515 322.17200298077705 " transform="rotate(138, 400, 400)"></path><path d="M-117.50005744587281 483.34802298603074C-105.73869348321068 465.8823975014775 -46.9318736699 351.38551932496165 -23.409145744575767 343.6230191096046C0.11358218074849447 335.8605188942476 47.159038031397046 416.4846688582965 70.68176595672128 421.2480212631747C94.20449388204554 426.01137366805284 141.24994973269406 373.08523583607325 164.77267765801838 381.7298383486299C188.29540558334264 390.3744408611866 235.34086143399117 499.5787052545045 258.8635893593154 490.40484136362807C282.3863172846397 481.23097747275153 329.43177313528815 313.98438192369605 352.9545010606124 308.33892722161823C376.4772289859367 302.6934725195404 423.5226848365852 441.35995363932693 447.04541276190946 445.24120374700544C470.56814068723384 449.12245385468395 517.6135965378824 333.5670529215285 541.1363244632066 339.38892808304627C564.6590523885308 345.210803244564 611.7045082391793 493.40398917410687 635.2272361645036 491.81620503914746C658.7499640898278 490.22842090418806 705.7954199404764 327.74517776001073 729.3181478658007 326.68665500337113C752.8408757911249 325.6281322467316 799.8863316417735 483.70086390491065 823.4090595670976 483.34802298603074C846.9317874924218 482.9951820671509 905.7386073057326 343.7994395690446 917.4999712683946 323.8639276523322 " transform="rotate(135, 400, 400)"></path><path d="M-106.00002700805653 481.49580324440865C-94.50002668900913 464.4183027706232 -37.000025093772024 352.46579966469665 -14.000024455677192 344.87579945412534C8.99997618241764 337.28579924355404 54.999977458607304 416.11830143062406 77.99997809670211 420.77580155983827C100.99997873479697 425.4333016890525 146.99998001098663 373.6833002533391 169.99998064908146 382.135800487839C192.99998128717635 390.58830072233883 238.99998256336596 497.3658036846941 261.99998320146085 488.39580343583714C284.9999838395557 479.42580318698015 330.99998511574523 315.89579865012587 353.99998575384006 310.37579849698307C376.99998639193495 304.8557983438403 422.9999876681246 440.4408021054094 445.9999883062195 444.23580221069506C468.9999889443143 448.0308023159806 514.9999902205041 335.0432991813398 537.9999908585988 340.7357993392683C560.9999914966936 346.42829949719675 606.9999927728834 491.3283035171942 629.9999934109782 489.77580347412277C652.9999940490729 488.22330343105136 698.9999953252627 329.35079902341135 721.9999959633576 328.31579899469705C744.9999966014524 327.2807989659828 790.999997877642 481.8408032539801 813.9999985157368 481.49580324440865C836.9999991538316 481.1508032348372 894.5000007490685 345.04829945891106 906.000001068116 325.5557989181257 " transform="rotate(132, 400, 400)"></path><path d="M-94.5000270878184 479.6436864996127C-83.2613904123857 462.9543110365952 -27.068207035222144 353.5461830012578 -4.59093368435677 346.12868279547223C17.886339666508633 338.71118258968664 62.84088636823944 415.75203699977783 85.31815971910484 420.30368485332804C107.79543306997022 424.8553327068783 152.74997977170108 374.2814676674312 175.22725312256648 382.5418656238742C197.70452647343194 390.80226358031723 242.6590731751627 495.1530051117099 265.1363465260281 486.3868685048724C287.61361987689355 477.6207318980349 332.56816657862424 317.8073183733818 355.0454399294897 312.4127727691741C377.5227132803552 307.01822716496645 422.4772599820859 439.521753568318 444.9545333329514 443.2305036712108C467.4318066838167 446.9392537741036 512.3863533855476 336.51964843797725 534.8636267364129 342.08277359231647C557.3409000872783 347.64589874665563 602.2954467890091 489.2527208571077 624.7727201398745 487.73550490592424C647.2499934907398 486.21828895474084 692.204540192471 330.9565232836381 714.6818135433363 329.94504598284914C737.1590868942017 328.9335686820602 782.1136335959325 479.9808455998757 804.5909069467979 479.6436864996127C827.0681802976632 479.30652739934976 883.2613636748265 346.2972623456037 894.5000003502594 327.2477731807453 " transform="rotate(129, 400, 400)"></path><path d="M-83.00002716758024 477.79148201677975C-72.02275413576226 461.49023156453006 -17.136388976672293 354.6264785997819 4.818157086963652 347.381478398782C26.772703150599625 340.13647819778214 70.6817952778716 415.38568483089443 92.63634134150757 419.83148040878075C114.59088740514358 424.27727598666706 158.49997953241552 374.8795473434861 180.4545255960515 382.9478430218723C202.40907165968747 391.0161387002585 246.31816378695942 492.94011880068854 268.27270985059545 484.3778458358705C290.2272559142314 475.8155728710525 334.1363480415033 319.7187503586007 356.0908941051393 314.4496593033281C378.04544016877526 309.1805682480554 421.9545322960472 438.6026172931895 443.90907835968324 442.22511739368946C465.86362442331927 445.84761749418936 509.7727165505912 337.99590995657763 531.7272626142271 343.42966010732755C553.681808677863 348.86341025807747 597.5909008051351 487.1770504589841 619.545446868771 485.69511859968867C641.4999929324069 484.21318674039327 685.4090850596791 332.5621598058277 707.363631123315 331.5742052329641C729.318177186951 330.5862506601005 773.227269314223 478.1208002077343 795.1818153778588 477.79148201677975C817.1363614414948 477.4621638258252 872.0227266005847 347.5461374942593 882.9999996324027 328.9396597053278 " transform="rotate(126, 400, 400)"></path><path d="M-71.49999672976398 475.9393233103139C-60.784087341560706 460.026197868832 -7.204540400544317 355.7068199746732 14.227278375862227 348.634319778459C35.65909715226877 341.5618195822448 78.52273470508189 415.0193784383783 99.9545534814884 419.3593217406006C121.38637225789495 423.69926504282296 164.2500098107081 375.4776727959082 185.68182858711464 383.3538661962376C207.11364736352118 391.230059596567 249.97728491633427 490.72727826603443 271.40910369274087 482.36886894323584C292.8409224691474 474.0104596204373 335.70456002196045 321.63022812018676 357.136378798367 316.48659161384916C378.56819757477365 311.3429551075116 421.4318351275866 437.6835267944282 442.86365390399317 441.21977689253526C464.2954726803998 444.75602699064234 507.1591102332129 339.4722172515452 528.5909290096195 344.7765923987058C550.0227477860259 350.08096754586643 592.8863853388391 485.1014258372277 614.3182041152456 483.6547780698203C635.7500228916521 482.2081303024128 678.6136604444654 334.1678421043846 700.0454792208719 333.2034102594463C721.4772979972784 332.238978414508 764.3409355500916 476.26080059196 785.772754326498 475.9393233103139C807.2045731029045 475.6178460286678 860.7841200439209 348.79505841928204 871.5000294321242 330.6315920062775 " transform="rotate(123, 400, 400)"></path><path d="M-59.999996809525825 474.0871111980864C-49.54545106493728 458.56211076737236 2.727277658005562 356.7871079438027 23.636369147182677 349.8871077523743C44.54546063635976 342.9871075609458 86.36364361471402 414.6530186401004 107.27273510389114 418.8871096666588C128.18182659306822 423.12120069321713 170.00000957142254 376.0757448425686 190.9091010605996 383.75983596484116C211.81819254977682 391.44392708711376 253.636375528131 488.5143843256186 274.54546701730817 480.3598386448395C295.4545585064853 472.2052929640604 337.2727414848394 323.54165247601105 358.1818329740166 318.5234705186086C379.09092446319374 313.50528856120604 420.90910744154803 436.76438288990516 441.8181989307252 440.2143829856194C462.72729041990226 443.66438308133365 504.5454733982566 340.94847114075105 525.4545648874335 346.12347128432236C546.3636563766107 351.2984714278937 588.181839354965 483.0257478097096 609.090930844142 481.6143841341901C630.0000223333192 480.20302045867066 671.8182053116735 335.7734709971797 692.7272968008506 334.83256188016674C713.6363882900278 333.89165276315373 755.454571268382 474.400747570424 776.3636627575592 474.0871111980864C797.2727542467361 473.77347482574874 849.5454829696788 350.04392593854305 860.0000287142675 332.32347090146544 " transform="rotate(120, 400, 400)"></path><path d="M-48.49999688928769 472.23496012101504C-38.306814788313844 457.09808470106884 12.659095716555413 357.8674569480885 33.0454599185031 351.1399567614458C53.431824120450756 344.412456574803 94.20455252434618 414.28671987697874 114.59091672629384 418.41495862787315C134.97728092824156 422.54319737876756 175.75000933213693 376.67387792438524 196.13637353408467 384.165866768601C216.52273773603235 391.6578556128168 257.2954661399277 486.3015514203589 277.6818303418754 478.35086938159935C298.06819454382315 470.4001873428398 338.84092294771847 325.45313786699165 359.22728714966615 320.5604104585242C379.61365135161384 315.6676830500568 420.3863797555093 435.8453000205384 440.7727439574569 439.2090501138598C461.1591081594047 442.57280020718116 501.93183656330007 342.4247860651131 522.3182007652478 347.47041120509516C542.7045649671954 352.5160363450772 583.4772933710909 480.95013081734766 603.8636575730385 479.5740512337162C624.2500217749861 478.19797165008475 665.0227501788818 337.37916092513103 685.4091143808295 336.46177453604344C705.7954785827769 335.5443881469558 746.5682069866725 472.5407555840443 766.95457118862 472.23496012101504C787.3409353905677 471.92916465798584 838.3068458954369 351.2928544929604 848.5000279964108 334.0154108318097 " transform="rotate(117, 400, 400)"></path><path d="M-36.99999696904953 470.38274800878753C-27.068178511690405 455.6339975996092 22.590913775105278 358.947744917218 42.45455068982352 352.392744735361C62.31818760454178 345.83774455350397 102.04546143397832 413.9203600787008 121.90909834869657 417.9427465539313C141.77273526341483 421.96513302916173 181.50000909285137 377.2719499710456 201.36364600756963 384.5718365372046C221.22728292228794 391.87172310336354 260.95455675172445 484.0886574799431 280.81819366644277 476.341839083203C300.681830581161 468.5950206864628 340.4091044105975 327.364562222816 360.27274132531574 322.5972893632836C380.13637824003405 317.8300165037512 419.8636520694706 434.92615611601536 439.7272889841888 438.2036562069439C459.59092589890713 441.4811562978724 499.31819972834376 343.90103995431895 519.181836643062 348.8172900907117C539.0454735577802 353.73354022710447 578.7727473872167 478.87445278982955 598.636384301935 477.53365729808604C618.5000212166532 476.1928618063426 658.2272950460899 338.9847898179262 678.0909319608081 338.0909261567638C697.9545688755263 337.19706249560153 737.681842704963 470.68070256250826 757.5454796196811 470.38274800878753C777.4091165343993 470.0847934550667 827.068208821195 352.5417220122214 837.0000272785541 335.70728972699766 " transform="rotate(114, 400, 400)"></path><path d="M-25.499997048811395 468.53060456111075C-15.829542235066981 454.1699791627003 32.52273183365514 360.0281015508983 51.86364146114397 353.64560137382705C71.2045510886328 347.2631011967557 109.88637034361048 413.5540689449737 129.2272799710993 417.4706031445402C148.56818959858813 421.3871373441067 187.25000885356582 377.87009068225683 206.5909184810547 384.9778749703589C225.93182810854353 392.0856592584611 264.6136473635212 481.87583220407805 283.95455699101 474.3328774493574C303.2954666184989 466.78992269463674 341.97728587347643 329.2760552431911 361.3181955009653 324.6342369325938C380.65910512845426 319.9924186219965 419.34092438343185 434.0070808760432 438.68183401092074 437.1983309645788C458.02274363840957 440.38958105311445 496.7045628933872 345.3773625080756 516.045472520876 350.16423764087904C535.3863821483649 354.95111277368255 574.0682014033425 476.7988434268622 593.4091110308314 475.4933320270067C612.7500206583202 474.1878206271512 651.4318399132981 340.59048737527206 670.7727495407868 339.72014644203506C690.1136591682757 338.84980550879806 728.7954784232533 468.82071820552306 748.1363880507422 468.53060456111075C767.4772976782309 468.2404909166984 815.8295717469529 353.7906581960332 825.5000265606974 337.3992372867364 " transform="rotate(111, 400, 400)"></path><path d="M-13.999997128573241 466.67839626358045C-4.5909059584435425 452.7058958759378 42.454549892204994 361.1083933347252 61.27273223246439 354.89839316243956C80.09091457272379 348.68839299015394 117.72727925324264 413.18771296139306 136.545461593502 416.9983948852956C155.3636439337614 420.80907680919813 193.0000086142802 378.4681665436145 211.81819095453966 385.3838485536598C230.6363732947991 392.29953056370516 268.2727379753179 479.66294207835944 287.0909203155773 472.32385096565827C305.90910265583676 464.9847598529571 343.5454673363555 331.1874834137127 362.3636496766149 326.67111965205044C381.18183201687435 322.1547558903882 418.81819669739315 433.0879407862174 437.63637903765255 436.1929408723602C456.4545613779121 439.29794095850303 494.0909260584308 346.85362021197864 512.9091083986903 351.51112034119285C531.7272907389496 356.16862047040706 569.3636554194685 474.7231692140414 588.1818377597278 473.4529419060739C607.0000200999872 472.1827145981063 644.6363847805062 342.1961200827644 663.4545671207655 341.3493018774528C682.272749461025 340.5024836721411 719.9091141415438 466.96066899868435 738.7272964818031 466.67839626358045C757.5454788220625 466.39612352847655 804.590934672711 355.0395295299915 814.0000258428407 339.09111999662167 " transform="rotate(108, 400, 400)"></path><path d="M-2.4999972083351025 464.8262375571146C6.647730318179882 451.2418621802399 52.386367950754845 362.1887347096164 70.68182300378481 356.1512345421165C88.97727805681478 350.1137343746166 125.56818816287478 412.8214065688769 143.86364321590474 416.52623621711547C162.1590982689347 420.231065865354 198.75000837499465 379.06629199603657 217.04546342802473 385.7898717280251C235.3409184810547 392.51345146001364 271.93182858711464 477.4501015437053 290.22728364014466 470.31487407302365C308.52273869317463 463.1796466023419 345.1136487992345 333.09896117529877 363.40910385226454 328.7080519625716C381.7045589052945 324.3171427498444 418.29546901135444 432.1688502874561 436.59092406438447 435.18760037120603C454.88637911741444 438.206350454956 491.4772892234745 348.3299275069462 509.77274427650445 352.8580526325711C528.0681993295343 357.386177758196 564.6591094355944 472.64754459228493 582.9545644886243 471.41260137620543C601.2500195416542 470.17765816012593 637.8409296477143 343.8018023813213 656.1363847007443 342.97850690393494C674.4318397537743 342.1552114265486 711.0227498598342 465.10066938291004 729.3182049128642 464.8262375571146C747.6136599658942 464.5518057313192 793.352297598469 356.28845045501424 802.5000251249841 340.7830522975713 " transform="rotate(105, 400, 400)"></path><path d="M9.00000271190305 462.9740559624652C17.88636659480332 449.7778055963583 62.318186009304725 363.2690531963241 80.09091377510526 357.4040530336099C97.8636415409058 351.5390528708957 133.4090970725069 412.4550772881771 151.18182483830745 416.0540546607517C168.95455260410802 419.6530320333263 204.5000081357091 379.6643945602751 222.2727359015097 386.1958720142068C240.0454636673103 392.7273494681385 275.59091919891137 475.2372381208676 293.3636469647119 468.3058742922054C311.1363747305125 461.3745104635432 346.6818302621135 335.0104160487012 364.4545580279141 330.74496138490906C382.2272857937147 326.47950672111693 417.77274132531574 431.2497369005112 435.5454690911164 434.1822369818683C453.31819685691687 437.1147370632254 488.86365238851795 349.8062119137302 506.63638015431854 354.2049620357658C524.409107920119 358.60371215780145 559.9545634517202 470.57189708234495 577.7272912175207 469.3722379581534C595.5000189833213 468.1725788339619 631.0454745149226 345.4074617916945 648.818202280723 344.6076890422335C666.5909300465236 343.80791629277246 702.1363855781246 463.24064687895225 719.9091133439251 462.9740559624652C737.6818411097257 462.7074650459782 782.1136605242269 357.53734849185344 791.0000244071274 342.4749617103374 " transform="rotate(102, 400, 400)"></path><path d="M20.50000263214119 461.12188199721027C29.125002871426744 448.31375664187124 72.25000406785458 364.34937931242627 89.50000454642571 358.6568791544978C106.75000502499682 352.96437899656934 141.25000598213904 412.0887556368719 158.50000646071018 415.58188073378255C175.75000693928132 419.07500583069316 210.25000789642354 380.26250475390816 227.50000837499465 386.601879929783C244.75000885356587 392.94125510565794 279.25000981070804 473.0243823274244 296.5000102892792 466.29688214078163C313.75001076785037 459.56938195413886 348.25001172499253 336.9218785514982 365.5000122035637 332.78187843664114C382.7500126821348 328.6418783217841 417.25001363927703 430.33063114296084 434.5000141178482 433.1768812219251C451.7500145964193 436.0231313008893 486.25001555356164 351.2825039499087 503.50001603213263 355.551879068355C520.7500165107037 359.82125418680135 555.2500174678461 468.49625720179944 572.5000179464172 467.3318821694959C589.7500184249883 466.1675071371924 624.2500193821306 347.0131288314623 641.5000198607017 346.2368788099266C658.7500203392729 345.4606287883909 693.2500212964152 461.3806320043889 710.5000217749862 461.12188199721027C727.7500222535573 460.8631319900318 770.8750234499851 358.7862541580871 779.5000236892707 344.16687875249806 " transform="rotate(99, 400, 400)"></path><path d="M32.00000255237934 459.2697004025609C40.36363914805018 446.84970005798965 82.18182212640444 365.429697799134 98.90909531774614 359.9096976459912C115.63636850908782 354.3896974928484 149.0909148917712 411.7224263561721 165.81818808311291 415.1096991774188C182.5454612744546 418.49697199866546 216.00000765713799 380.86060731814666 232.72728084847972 387.00788021596475C249.45455403982146 393.15515311378283 282.9091004225048 470.81151890458665 299.63637361384656 464.2878823599634C316.36364680518824 457.76424581534013 349.81819318787154 338.8333334249007 366.5454663792133 334.8187878589786C383.272739570555 330.80424229305663 416.7272859532384 429.41151775601594 433.45455914458006 432.1715178325873C450.1818323359218 434.9315179091587 483.63637871860533 352.7587883566926 500.36365190994684 356.89878847154966C517.0909251012886 361.0387885864068 550.5454714839719 466.42060969185945 567.2727446753137 465.2915187514439C584.0000178666553 464.16242781102835 617.4545642493388 348.61878824183555 634.1818374406805 347.86606094822514C650.9091106320221 347.1133336546148 684.3636570147056 459.52060950043096 701.0909302060472 459.2697004025609C717.8182033973889 459.01879130469075 759.6363863757431 360.03515219492624 768.000022971414 345.8587881652642 " transform="rotate(96, 400, 400)"></path><path d="M43.50000247261748 457.41751880791145C51.60227542467361 445.3856434741081 92.1136401849543 366.51001628584163 108.31818608906656 361.16251613748454C124.52273199317881 355.8150159891275 156.93182380140337 411.35609707547235 173.13636970551562 414.63751762105505C189.3409156096279 417.9189381666378 221.75000741785243 381.45870988238516 237.95455332196468 387.41388050214647C254.159099226077 393.3690511219077 286.56819103430155 468.5986554817489 302.7727369384138 462.27888257914515C318.9772828425261 455.95910967654135 351.38637465075055 340.7447882983031 367.59092055486286 336.85569728131617C383.7954664589751 332.96660626432924 416.2045582671997 428.49240436907104 432.409104171312 431.1661544432496C448.61365007542423 433.83990451742807 481.0227418836488 354.2350727634766 497.22728778776104 358.24569787474434C513.4318336918733 362.25632298601215 545.8409255000979 464.3449621819194 562.04547140421 463.25115533339186C578.2500173083223 462.1573484848643 610.6591091165469 350.22444765220877 626.8636550206592 349.4952430865237C643.0682009247714 348.76603852083866 675.477292732996 457.66058699647317 691.6818386371083 457.41751880791145C707.8863845412205 457.1744506193498 748.3977493015011 361.28405023176543 756.5000222535573 347.5506975780303 " transform="rotate(93, 400, 400)"></path><path d="M55.000002392855635 455.565337213262C62.840911701297046 443.92158689022654 102.04545824350416 367.5903347725493 117.72727686038701 362.4153346289779C133.40909547726983 357.2403344854066 164.7727327110355 410.98976779477255 180.45455132791835 414.16533606469136C196.1363699448012 417.3409043346101 227.50000717856688 382.0568124466237 243.18182579544973 387.81988078832813C258.86364441233263 393.5829491300326 290.2272816460983 466.3857920589112 305.90910026298116 460.2698827983269C321.590918879864 454.15397353774256 352.9545561136296 342.65624317170557 368.63637473051244 338.8926067036537C384.31819334739527 335.1289702356018 415.68183058116097 427.57329098212614 431.3636491980438 430.1607910539118C447.04546781492667 432.7482911256975 478.4091050486924 355.71135717026056 494.0909236655752 359.592607277939C509.772742282458 363.4738573856175 541.1363795162238 462.26931467197943 556.8181981331065 461.2107919153399C572.5000167499894 460.1522691587003 603.8636539837552 351.83010706258204 619.5454726006379 351.1244252248223C635.2272912175207 350.4187433870626 666.5909284512865 455.80056449251526 682.2727470681692 455.565337213262C697.9545656850521 455.33010993400876 737.1591122272592 362.53294826860457 745.0000215357006 349.2426069907964 " transform="rotate(90, 400, 400)"></path><path d="M66.50000231309377 453.7131594333099C74.07954797792047 442.4575341210422 111.97727630205402 368.6706570739542 127.13636763170743 363.6681569351686C142.29545896136085 358.66565679638296 172.6136416206677 410.62344232877 187.77273295032109 413.6931583230249C202.93182427997448 416.7628743172797 233.25000693928132 382.6549188255595 248.40909826893474 388.2258848892071C263.5681895985882 393.79685095285475 293.886372257895 464.1729324507707 309.0454635875484 458.26088683220587C324.20455491720185 452.34884121364104 354.5227375765086 344.5677018598053 369.681828906162 340.92951994068846C384.8409202358155 337.2913380215717 415.15910289512226 426.65418140987856 430.3181942247757 429.15543147927133C445.47728555442916 431.65668154866415 475.795468213736 357.18764539174174 490.9545595433894 360.93952049583095C506.11365087304273 364.6913955999202 536.4318335323496 460.1936709767367 551.590924862003 459.1704323119851C566.7500161916564 458.1471936472335 597.0681988509633 353.43577028765253 612.2272901806167 352.75361117781813C627.3863815102701 352.0714520679837 657.704564169577 453.9405458032547 672.8636554992303 453.7131594333099C688.0227468288837 453.48577306336506 725.9204751530172 363.781850120141 733.500020817844 350.9345202182597 " transform="rotate(87, 400, 400)"></path><path d="M78.00000223333193 451.860985468055C85.31818425454391 440.99348516655516 121.90909436060389 369.75098319005644 136.54545840302785 364.9209830560565C151.18182244545184 360.0909829220566 180.4545505302998 410.2571206774648 195.0909145727238 413.22098439605566C209.72727861514778 416.1848481146465 239.00000669999574 383.2530290191925 253.63637074241976 388.6318928047834C268.27273478484375 394.01075659037417 297.54546286969173 461.96007665732753 312.1818269121157 456.2518946807822C326.81819095453966 450.54371270423684 356.0909190393876 346.47916436260226 370.7272830818116 342.96643699242054C385.3636471242356 339.45370962223876 414.63637520908355 425.7350756523282 429.2727392515076 428.15007571932813C443.90910329393154 430.56507578632807 473.1818313787796 358.66393742792025 487.81819542120354 362.28643752842015C502.45455946362745 365.9089376289201 531.7272875484755 458.1180310961912 546.3636515908995 457.1300765233276C561.0000156333233 456.142121950464 590.2727437181715 355.04143732742034 604.9091077605954 354.38280094551124C619.5454718030194 353.72416456360213 648.8181998878674 452.08053092869136 663.4545639302913 451.860985468055C678.0909279727152 451.6414400074186 714.6818380787752 365.0307557863747 722.0000200999873 352.62643726042035 " transform="rotate(84, 400, 400)"></path><path d="M89.50000215357007 450.00880387340555C96.55682053116735 439.5294285826736 131.84091241915374 370.8313016767641 145.9545491743483 366.1738015475499C160.06818592954284 361.5163014183357 188.29545943993196 409.89079139676505 202.4090961951265 412.7488028396919C216.52273295032109 415.6068142826188 244.75000646071018 383.8511315834311 258.86364321590474 389.03789309096504C272.97727997109934 394.22465459849906 301.2045534814884 459.7472132344898 315.318190236683 454.2428948999639C329.43182699187753 448.73857656543805 357.65910050226665 348.39061923600474 371.7727372574612 345.003346414758C385.8863740126558 341.6160735935114 414.11364752304485 424.8159622653833 428.22728427823944 427.1447123299904C442.34092103343403 429.4734623945975 470.56819454382315 360.1402218347042 484.68183129901763 363.6333469316149C498.7954680542122 367.12647202852554 527.0227415646013 456.0423835862512 541.1363783197959 455.08971310527556C555.2500150749904 454.13704262429997 583.4772885853796 356.64709673779356 597.5909253405741 356.0119830838098C611.7045620957687 355.37686942982606 639.9318356061578 450.22050842473345 654.0454723613524 450.00880387340555C668.1591091165469 449.79709932207766 703.4432010045333 366.27965382321383 710.5000193821305 354.31834667318645 " transform="rotate(81, 400, 400)"></path><path d="M101.0000020738082 448.1566108346643C107.79545680779077 438.06536055470025 141.77273047770362 371.91160871937996 155.36363994566872 367.42660859495146C168.95454941363386 362.94160847052297 196.13636834956412 409.52445067197345 209.72727781752923 412.2766098392364C223.31818728549433 415.0287690064993 250.50000622142463 384.4492227035778 264.09091568938976 389.44388193305497C277.6818251573549 394.43854116253215 304.8636440932852 457.5343383675603 318.45455356125024 452.2338836750539C332.0454630292154 446.93342898254747 359.2272819651456 350.3020626653154 372.81819143311077 347.0402443930038C386.40910090107593 343.77842612069213 413.59091983700614 423.8968374343466 427.1818293049713 426.1393374965608C440.77273877293646 428.3818375587751 467.95455770886673 361.6164947973964 481.54546717683183 364.98024489071776C495.13637664479694 368.3439949840391 522.3181955807272 453.96672463221944 535.9091050486923 453.0493382431318C549.5000145166574 452.13195185404413 576.6818334525879 358.252744704075 590.2727429205529 357.6411537780166C603.863652388518 357.02956285195813 631.0454713244483 448.3604744766838 644.6363807924134 448.1566108346643C658.2272902603785 447.9527471926449 692.2045639302912 367.5285404159612 699.0000186642739 356.01024464186077 " transform="rotate(78, 400, 400)"></path><path d="M112.50000199404636 446.3044521281985C119.03409308441421 436.60132685900226 151.70454853625347 372.9919500942712 164.77273071698914 368.6794499746284C177.84091289772488 364.36694985498565 203.97727725919628 409.15814427945725 217.04545943993196 411.80445117105626C230.11364162066764 414.4507580626552 256.2500059821391 385.0473481559999 269.3181881628748 389.8499051074203C282.38637034361045 394.6524620588406 308.5227347050819 455.3214978329062 321.5909168858176 450.2249067824192C334.65909906655327 445.1283157319323 360.7954634280246 352.21354042690143 373.86364560876035 349.07717670352486C386.9318277894961 345.94081298014834 413.0681921509675 422.9777469355853 426.13637433170317 425.1339969954067C439.2045565124389 427.29024705522806 465.3409208739103 363.0928020923639 478.409103054646 366.327177182096C491.47728523538166 369.5615522718281 517.6136495968531 451.891100010463 530.6818317775887 451.00899771326334C543.7500139583244 450.1268954160637 569.886378319796 359.85842700263186 582.9545605005317 359.27035880449876C596.0227426812673 358.68229060636565 622.1591070427387 446.50047486090955 635.2272892234744 446.3044521281985C648.29547140421 446.10842939548746 680.9659268560494 368.77746134098396 687.5000179464172 357.70217694281047 " transform="rotate(75, 400, 400)"></path><path d="M124.0000019142845 444.45227053354904C130.27272936103765 435.13727027512067 161.63636659480335 374.07226858097886 174.1818214883096 369.9322684661218C186.72727638181587 365.79226835126474 211.81818616882842 408.7918149987575 224.3636410623347 411.3322696146925C236.90909595584094 413.8727242306275 262.0000057428535 385.6454507202384 274.5454606363598 390.255905393602C287.09091552986604 394.8663600669655 312.1818253168786 453.1086344100684 324.7272802103849 448.21590700160095C337.27273510389114 443.32317959313355 362.3636448909037 354.1249953003039 374.90909978440993 351.1140861258624C387.45455467791624 348.1031769514209 412.5454644649288 422.0586335486404 425.09091935843503 424.1286336060689C437.63637425194133 426.19863366349745 462.7272840389539 364.5690864991479 475.2727389324602 367.6740865852907C487.8181938259664 370.7790866714335 512.9091036129789 449.815452500523 525.4545585064852 448.96863429521136C538.0000133999915 448.12181608989965 563.0909231870041 361.4640864130051 575.6363780805104 360.8995409427973C588.1818329740165 360.3349954725895 613.2727427610292 444.64045235695164 625.8181976545354 444.45227053354904C638.3636525480417 444.2640887101465 669.7272897818074 370.0263593778231 676.0000172285605 359.3940863555765 " transform="rotate(72, 400, 400)"></path><path d="M135.50000183452266 442.6000965682942C141.51136563766107 433.6732213206336 171.5681846533532 375.1525946970811 183.59091225963002 371.18509458700976C195.61363986590686 367.21759447693836 219.65909507846055 408.42549334745223 231.6818226847374 410.8600956877233C243.70455029101424 413.2946980279944 267.75000550356793 386.2435609138715 279.7727331098448 390.6619133091782C291.7954607161216 395.080265704485 315.8409159286754 450.8957786166252 327.8636435349522 446.2069148501772C339.886371141229 441.51805108372923 363.93182635378264 356.0364578031009 375.95455396005957 353.1510031775945C387.9772815663364 350.26554855208803 412.0227367788901 421.13952779109 424.04546438516695 423.1232778461257C436.06819199144377 425.10702790116136 460.1136472039975 366.0453785353264 472.13637481027433 369.0210036178799C484.15910241655115 371.9966287004334 508.2045576291049 447.73981261997756 520.2272852353817 446.92827850655385C532.2500128416584 446.11674439313015 556.2954680542123 363.06975345277283 568.3181956604891 362.5287307104904C580.3409232667659 361.9877079682079 604.3863784793195 442.7804374823884 616.4091060855965 442.6000965682942C628.4318336918733 442.4197556542 658.4886527075653 371.2752650440568 664.5000165107039 361.08600339773716 " transform="rotate(69, 400, 400)"></path><path d="M146.9999864959717 440.74791497364475C152.74998665549543 432.20916473675203 181.499987453114 376.23291318378875 192.9999877721614 372.43791307850313C204.49998809120882 368.64291297321745 227.49998872930365 408.0591640667525 238.99998904835104 410.3879141313596C250.49998936739848 412.7166641959667 273.4999900054933 386.84166347811 284.9999903245407 391.0679135953599C296.49999064358815 395.2941637126098 319.499991281683 448.6829151937875 330.9999916007304 444.197915069359C342.4999919197778 439.7129149449305 365.4999925578726 357.94791267650334 376.99999287692003 355.18791259993196C388.4999931959675 352.4279125233606 411.4999938340623 420.2204144041451 422.99999415310975 422.11791445678796C434.49999447215714 424.01541450943074 457.49999511025203 367.5216629421103 468.9999954292994 370.36791302107457C480.4999957483468 373.21416310003883 503.4999963864417 445.6641651100375 514.9999967054891 444.8879150885018C526.4999970245365 444.1116650669661 549.4999976626314 364.6754128631461 560.9999979816788 364.15791284878895C572.4999983007262 363.6404128344318 595.499998938821 440.9204149784305 606.9999992578685 440.74791497364475C618.4999995769158 440.57541496885904 647.2500003745342 372.52416308089596 653.000000534058 362.77791281050327 " transform="rotate(66, 400, 400)"></path><path d="M158.49998641620988 438.89573719369264C163.98862293211886 430.74511196756777 191.43180551166387 377.3132354851937 202.40907854348183 373.69073538469377C213.3863515752998 370.0682352841938 235.34089763893581 407.69283860074995 246.31817067075377 409.9157363896931C257.2954437025718 412.13863417863627 279.24998976620776 387.4397698570458 290.2272627980258 391.4739176962389C301.20453582984373 395.508065535432 323.1590818934797 446.470055585647 334.1363549252977 442.188919103238C345.1136279571157 437.907782620829 367.06817402075166 359.8593713646031 378.04544705256967 357.2248258369668C389.02272008438763 354.59028030933047 410.9772661480236 419.3013048318975 421.9545391798416 421.1125548821475C432.93181221165963 422.9238049323974 454.8863582752956 368.99795116359155 465.86363130711356 371.7148262389665C476.8409043389315 374.43170131434147 498.79545040256755 443.5885214147948 509.7727234343855 442.84755548514704C520.7499964662035 442.10658955549934 542.7045425298395 366.2810760882166 553.6818155616575 365.7870988017848C564.6590885934754 365.293121515353 586.6136346571116 439.0603962891699 597.5909076889294 438.89573719369264C608.5681807207475 438.73107809821533 636.0113633002924 373.77306493243236 641.4999998162014 364.46982603796664 " transform="rotate(63, 400, 400)"></path><path d="M169.99998633644802 437.04356322843773C175.22725920874228 429.2810630130807 201.36362357021372 378.3935616012959 211.81816931480228 374.94356150558167C222.2727150593908 371.4935614098674 243.18180654856795 407.32651694944474 253.6363522931565 409.4435624627239C264.09089803774503 411.5606079760031 284.9999895269222 388.03788005067884 295.45453527151074 391.8799256118151C305.9090810160993 395.72197117295144 326.81817250527644 444.25719979220383 337.272718249865 440.1799269518143C347.72726399445355 436.1026541114247 368.6363554836306 361.7708338674001 379.0909012282192 359.2617428886988C389.5454469728078 356.75265190999755 410.45453846198495 418.3821990743471 420.90908420657354 420.10719912220424C431.36362995116207 421.83219917006136 452.27272144033924 370.47424319977006 462.7272671849277 373.0617432715557C473.1818129295163 375.64924334334137 494.0909044186934 441.51288153424935 504.54545016328194 440.8071996964896C514.9999959078705 440.10151785872984 535.9090873970476 367.88674312798435 546.3636331416362 367.4162885694779C556.8181788862248 366.9458340109714 577.727270375402 437.20038141460657 588.1818161199906 437.04356322843773C598.6363618645789 436.8867450422689 624.7727262260503 375.0219705986661 629.9999990983447 366.1617430801273 " transform="rotate(60, 400, 400)"></path><path d="M181.49998625668616 435.19137400439377C186.46589548536573 427.8169987998046 211.29544162876357 379.473872458609 221.2272600861227 376.1963723676805C231.15907854348183 372.918872276752 251.02271545820008 406.9601800393504 260.95453391555924 408.97137327696566C270.88635237291834 410.98256651458087 290.7499892876366 388.6359749855228 300.68180774499575 392.2859182686023C310.6136262023549 395.9358615516818 330.47726311707316 442.04432873997155 340.4090815744323 438.1709195416015C350.3409000317914 434.2975103432314 370.2045369465097 363.682281111408 380.13635540386883 361.2986446816418C390.06817386122793 358.91500825187563 409.93181077594625 417.4630780580077 419.86362923330535 419.101828103472C429.7954476906645 420.7405781489362 449.6590846053828 371.9505199771595 459.5909030627419 374.40864504535585C469.522721520101 376.86677011355226 489.3863584348193 439.4372263949148 499.3181768921784 438.766828649043C509.2499953495375 438.09643090317127 529.1136322642559 369.4923949089631 539.045450721615 369.04546307838194C548.9772691789741 368.5985312478008 568.8409060936924 435.34035128125413 578.7727245510515 435.19137400439377C588.7045430084106 435.04239672753334 613.5340891518084 376.2708610061107 618.499998380488 367.85364486349886 " transform="rotate(57, 400, 400)"></path><path d="M192.99998617692432 433.33920003913886C197.70453176198916 426.35294984531754 221.22725968731345 380.5541985747112 230.63635085744312 377.4491984885684C240.04544202757285 374.3441984024256 258.86362436783224 406.5938583880452 268.272715537962 408.49919934999645C277.68180670809164 410.4045403119477 296.49998904835104 389.23408517915584 305.90908021848077 392.69192618417856C315.3181713886105 396.1497671892012 334.1363537288699 439.8314729465284 343.54544489899956 436.16192739017777C352.9545360691293 432.49238183382715 371.7727184093887 365.593743614205 381.18180957951836 363.3355617333739C390.5909007496481 361.0773798525427 409.40908308990754 416.5439723004573 418.8181742600372 418.0964723435287C428.227265430167 419.6489723866001 447.04544777042634 373.42681201333795 456.45453894055606 375.75556207794506C465.86363011068573 378.08431214255216 484.6818124509452 437.3615865143693 494.09090362107486 436.72647286038557C503.49999479120453 436.09135920640176 522.318177131464 371.09806194873084 531.7272683015938 370.674652846075C541.1363594717234 370.2512437434192 559.9545418119828 433.4803364066908 569.3636329821124 433.33920003913886C578.7727241522422 433.1980636715869 602.2954520775664 377.5197666723444 606.9999976626314 369.54556190565944 " transform="rotate(54, 400, 400)"></path><path d="M204.49998609716246 431.4870184444894C208.9431680386126 424.888893261436 231.1590777458633 381.6345170614189 240.04544162876357 378.7020169800618C248.93180551166384 375.7695168987047 266.7045332774644 406.2275291073454 275.59089716036465 408.0270177936327C284.47726104326495 409.82650647992 302.2499888090655 389.8321877433944 311.1363526919658 393.0979264703602C320.0227165748661 396.3636651973261 337.7954443406666 437.6186095236906 346.6818082235669 434.1529276093595C355.56817210646716 430.6872456950284 373.3408998722677 367.50519848760746 382.227263755168 365.37247115571137C391.1136276380683 363.23974382381533 408.88635540386883 415.62485891351247 417.77271928676913 417.091108954191C426.6590831696694 418.55735899486956 444.4318109354699 374.9030964201219 453.3181748183702 377.10247148113973C462.20453870127045 379.3018465421576 479.97726646707105 435.28593900442934 488.8636303499713 434.68610944233353C497.7499942328716 434.0862798802378 515.5227219986723 372.7037213591041 524.4090858815724 372.30383498437357C533.2954497644728 371.90394860964307 551.0681775302733 431.62031390273296 559.9545414131735 431.4870184444894C568.8409052960737 431.35372298624594 591.0568150033243 378.76866470918355 595.4999969447747 371.23747131842555 " transform="rotate(51, 400, 400)"></path><path d="M215.9999860174006 429.6348482939318C220.18180431523604 423.4248481216462 241.09089580441315 382.7148469922183 249.45453240008402 379.95484691564695C257.81816899575483 377.1948468390756 274.54544218709657 405.86121127073744 282.9090787827674 407.5548476813608C291.27271537843825 409.2484840919841 307.99998856977993 390.4303017517247 316.3636251654508 393.50393820063374C324.72726176112167 396.5775746495428 341.45453495246335 435.40575754494466 349.8181715481342 432.1439392726331C358.18180814380503 428.88212100032143 374.9090813351467 369.4166648051017 383.2727179308176 367.4093920221407C391.63635452648845 365.4021192391797 408.3636277178301 414.7057569706593 416.727264313501 416.08575700894505C425.09090090917186 417.46575704723074 441.8181741005136 376.3793922709977 450.18181069618436 378.4493923284262C458.5454472918552 380.51939238585476 475.2727204831969 433.2103029385811 483.6363570788678 432.6457574683733C491.9999936745386 432.08121199816554 508.7272668658803 374.30939221356914 517.0909034615512 373.93302856676394C525.454540057222 373.55666491995873 542.1818132485637 429.76030284286685 550.5454498442346 429.6348482939318C558.9090864399054 429.5093937449967 579.8181779290825 380.0175741901145 583.9999962269179 372.92939217528345 " transform="rotate(48, 400, 400)"></path><path d="M227.49998593763877 427.7826609772365C231.42044059185946 421.96078581571874 251.02271386296303 383.79515975688014 258.86362317140447 381.2076596850944C266.70453247984585 378.6201596133088 282.3863510967287 405.49487626799174 290.2272604051701 407.08266040295115C298.06816971361155 408.6704445379105 313.7499883304944 391.0283985939173 321.5908976389358 393.90993276476956C329.43180694737725 396.79146693562177 345.1136255642601 433.19288840006107 352.9545348727015 430.1349337697689C360.7954441811429 427.07697913947675 376.4772627980258 371.32811395645825 384.31817210646716 369.4462957224323C392.15908141490854 367.5644774884064 407.8409000317914 413.78663786166857 415.6818093402328 415.08038789756137C423.5227186486743 416.3741379334542 439.2045372655572 377.8556709557357 447.04544657399856 379.796296009575C454.88635588243994 381.73692106341423 470.5681744993228 431.1346497065952 478.4090838077642 430.6053883282754C486.24999311620564 430.0761269499556 501.9318117330885 375.91504590189646 509.7727210415299 375.5622049830166C517.6136303499713 375.20936406413676 533.2954489668541 427.9002746168631 541.1363582752956 427.7826609772365C548.977267583737 427.66504733760985 568.5795408548406 381.2664665049077 572.4999955090613 374.62129586600366 " transform="rotate(45, 400, 400)"></path><path d="M238.99998585787688 425.93049654872476C242.65907686848288 420.49674639797485 260.95453192151285 384.8754954097255 268.27271394272486 382.4604953427255C275.5908959639369 380.04549527572556 290.22726000636084 405.1285641534297 297.54544202757285 406.6104960127251C304.8636240487848 408.0924278720205 319.4999880912088 391.62651832429356 326.81817011242083 394.3159502170889C334.13635213363284 397.00538210988435 348.7727161760568 430.98004214336106 356.09089819726876 428.1259511550884C363.40908021848077 425.27186016681566 378.04544426090473 373.2395859959984 385.36362628211674 371.48322231090754C392.68180830332875 369.72685862581665 407.3181723457527 412.86754164086136 414.6363543669647 414.07504167436133C421.95453638817673 415.2825417078613 436.59090043060075 379.3319725286574 443.9090824518127 381.14322257890734C451.22726447302466 382.9544726291573 465.8636285154487 429.05901936279287 473.1818105366607 428.56504207636107C480.4999925578726 428.07106478992927 495.13635660029666 377.52072247840744 502.4545386215086 377.1914042874529C509.7727206427206 376.86208609649833 524.4090846851446 426.04026927904295 531.7272667063567 425.93049654872476C539.0454487275686 425.8207238184066 557.3409037805985 382.5153817078846 560.9999947912046 376.31322244490747 " transform="rotate(42, 400, 400)"></path><path d="M250.49998577811505 424.0783092320294C253.8977131451063 419.03268409204736 270.88634998006273 385.95580817438724 277.6818047140453 383.71330811217297C284.4772594480279 381.47080804995875 298.068168915993 404.762229150684 304.8636236499756 406.13830873431544C311.6590783839581 407.51438831794695 325.24998785192327 392.22461516648616 332.0454425859058 394.72194478122475C338.8408973198884 397.21927439596334 352.43180678785353 428.7671729984774 359.22726152183606 426.1169456522242C366.02271625581864 423.46671830597097 379.61362572378374 375.15103514735495 386.4090804577663 373.5201260111992C393.2045351917489 371.8892168750433 406.795444659714 411.94842253187056 413.5908993936966 413.06967256297764C420.38635412767917 414.1909225940848 433.97726359564433 380.80825121339547 440.77271832962685 382.4901262600561C447.5681730636094 384.1720013067168 461.15908253157454 426.983366130807 467.95453726555706 426.5246729362632C474.74999199953965 426.06597974171933 488.34090146750486 379.12637616673476 495.1363562014874 378.82058070370556C501.9318109354699 378.51478524067636 515.5227204034351 424.1802410530392 522.3181751374177 424.0783092320294C529.1136298714002 423.9763774110197 546.1022667063565 383.76427402267785 549.4999940733478 378.0051261356276 " transform="rotate(39, 400, 400)"></path><path d="M261.99998569835316 422.2261409888204C265.13634942172973 417.5686408596062 280.8181680386126 387.0361400125353 287.09089548536576 384.9661399551068C293.36362293211886 382.89613989767827 305.90907782562516 404.3959132214246 312.18180527237826 405.6661405293922C318.4545327191314 406.9363678373597 330.9999876126377 392.8227310821651 337.27271505939086 395.1279584188469C343.54544250614396 397.43318575552865 356.0908973996502 426.5543229270801 362.36362484640335 424.1079592228464C368.6363522931565 421.66159551861267 381.1818071866628 377.06250337219785 387.4545346334159 375.5570487849771C393.72726208016906 374.05159419775634 406.2727169736753 411.0293224963661 412.54544442042845 412.06432252508034C418.8181718671816 413.09932255379465 431.3636267606879 382.28454897161987 437.63635420744106 383.8370490146912C443.9090816541941 385.3895490577626 456.4545365477004 424.9077319723074 462.72726399445355 424.4843228696516C468.9999914412067 424.0609137669957 481.545446334713 380.73204892854847 487.81817378146616 380.44977619344456C494.0909012282192 380.16750345834066 506.63635612172556 422.3202319005217 512.9090835684786 422.2261409888204C519.1818110152318 422.1320500771191 534.8636296321147 385.0131854109575 537.9999933554911 379.69704889983416 " transform="rotate(36, 400, 400)"></path><path d="M273.4999856185913 420.3739517647765C276.37498569835316 416.10457664633014 290.7499860971625 388.11645086984845 296.49998625668616 386.21895081720567C302.2499864162099 384.3214507645628 313.74998673525727 404.02957631133035 319.499986894781 405.1939513436339C325.2499870543047 406.35832637593745 336.74998737335216 393.4208260170091 342.4999875328758 395.53395107563404C348.24998769239954 397.647076134259 359.74998801144693 424.34145187484785 365.4999881709707 422.0989518126336C371.2499883304944 419.85645175041935 382.74998864954176 378.9739506162058 388.4999888090655 377.5939505779201C394.2499889685892 376.2139505396344 405.7499892876366 410.11020148002666 411.4999894471604 411.0589515063481C417.24998960668404 412.0077015326695 428.7499899257315 383.76082574900926 434.49999008525515 385.1839507884914C440.24999024477887 386.6070758279735 451.7499905638263 422.83207683297286 457.49999072335004 422.443951822205C463.2499908828737 422.05582681143716 474.74999120192115 382.33770070952716 480.49999136144487 382.0789507023486C486.2499915209686 381.82020069517 497.749991840016 420.46020176716934 503.4999919995397 420.3739517647765C509.24999215906337 420.2877017623836 523.6249925578726 386.2620758184021 526.4999926376345 381.38895068320574 " transform="rotate(33, 400, 400)"></path><path d="M285.00000079761855 418.5217777995216C287.6136372337657 414.6405276918431 300.6818194145014 389.1967769859507 305.90909228679567 387.47177693809357C311.1363651590899 385.74677689023645 321.5909109036785 403.6632546600251 326.8181837759728 404.7217774166647C332.0454566482671 405.7803001733043 342.50000239285566 394.01893621064215 347.7272752651499 395.9399589912103C352.9545481374442 397.8609817717784 363.4090938820327 422.1285960814046 368.636366754327 420.0899596612099C373.8636396266213 418.0513232410151 384.31818537120984 380.88541311900275 389.54545824350413 379.63086762965213C394.7727311157984 378.3763221403015 405.227276860387 409.1910957224763 410.4545497326813 410.0535957464049C415.68182260497554 410.9160957703334 426.1363683495641 385.23711778518776 431.3636412218584 386.5308678210806C436.5909140941527 387.8246178569734 447.04545983874124 420.7564369524274 452.2727327110355 420.40359603354756C457.50000558332977 420.05075511466765 467.95455132791835 383.9433677492949 473.18182420021265 383.70814047004166C478.40909707250694 383.47291319078846 488.8636428170955 418.600186892606 494.0909156893898 418.5217777995216C499.318188561684 418.4433687064372 512.3863707424197 387.51098148463575 515.0000071785669 383.0808677253664 " transform="rotate(30, 400, 400)"></path><path d="M296.50000071785666 416.66960001956943C298.8522735103891 413.17647492265877 310.61363747305126 390.2770992873556 315.3181830581161 388.7245992442842C320.0227286431809 387.1720992012128 329.43181981331065 403.2969291940226 334.1363653983755 404.2495996749982C338.8409109834404 405.20227015597385 348.25000215357005 394.6170425895779 352.9545477386349 396.3459630920893C357.6590933236998 398.0748835946006 367.06818449382945 419.9157364732642 371.7727300788943 418.0809636950889C376.4772756639592 416.2461909169136 385.8863668340889 382.7968718071025 390.5909124191537 381.66778086668694C395.2954580042186 380.53868992627133 404.7045491743483 408.27198615022866 409.40909475941316 409.04823617176436C414.11364034447803 409.82448619330006 423.5227315146077 386.713406006669 428.22727709967256 387.87778103897256C432.9318226847374 389.04215607127605 442.34091385486715 418.68079325718463 447.04545943993196 418.3632364301928C451.75000502499677 418.0456796032009 461.15909619512655 385.54903097436545 465.8636417801914 385.3373264230375C470.5681873652562 385.1256218717096 479.97727853538595 416.7401682033454 484.68182412045076 416.66960001956943C489.3863697055156 416.5990318357935 501.14773366817775 388.7598833361722 503.5000064607102 384.77278095282975 " transform="rotate(27, 400, 400)"></path><path d="M307.9999930087003 414.81742796166316C310.090902157618 411.71242787552035 320.54544790220655 391.35742731080643 324.727266200042 389.97742727252074C328.9090844978774 388.59742723423506 337.2727210935483 402.93060945006596 341.4545393913837 403.77742765537766C345.63635768921915 404.6242458606893 353.99999428488997 395.21515469055964 358.1818125827254 396.7519729150141C362.36363088056083 398.2887911394687 370.72726747623165 417.7028825871696 374.9090857740671 416.0719734510138C379.0909040719025 414.44106431485795 387.4545406675734 384.70833621724813 391.6363589654088 383.7046998257676C395.81817726324425 382.7010634342871 404.18181385891506 407.3528823000269 408.3636321567505 408.0428823191698C412.54545045458593 408.7328823383126 420.9090870502568 388.1896999501961 425.0909053480922 389.2246999789104C429.2727236459276 390.25970000762464 437.6363602415985 416.6051552839878 441.8181785394339 416.3228825488839C445.9999968372693 416.04060981378 454.36363343294016 387.15469992148184 458.5454517307756 386.96651809807923C462.727270028611 386.77833627467663 471.09090662428184 414.8801552361307 475.2727249221173 414.81742796166316C479.4545432199527 414.7547006871956 489.90908896454124 390.0087909097545 491.99999811345896 386.464699902339 " transform="rotate(24, 400, 400)"></path><path d="M319.49999292893847 412.96524922803667C321.32953843424144 410.24837415266177 330.4772659607564 392.43774865853703 334.13635697136243 391.23024862503706C337.79544798196844 390.0227485915371 345.11363000318045 402.56428303038916 348.7727210137864 403.30524896003686C352.4318120243924 404.04621488968456 359.7499940456044 395.8132601158211 363.4090850562104 397.1579760622188C367.0681760668164 398.50269200861646 374.3863580880284 415.49002202535485 378.0454490986344 414.0629765312185C381.7045401092404 412.6359310370822 389.0227221304524 386.6197939516735 392.68181314105834 385.7416121091281C396.3409041516644 384.86343026658267 403.65908617287636 406.43377177410497 407.31817718348236 407.03752179085495C410.97726819408837 407.641271807605 418.2954502153004 389.665987218003 421.9545412259064 390.571612243128C425.61363223651233 391.47723726825296 432.93181425772434 414.5295106350708 436.59090526833035 414.2825219918549C440.2499962789363 414.0355333486389 447.56817830014836 388.760362192878 451.2272693107543 388.59570309740076C454.8863603213603 388.4310440019235 462.2045423425723 413.0201355931958 465.86363335317833 412.96524922803667C469.5227243637843 412.9103628628776 478.67045189029926 391.25769180761665 480.4999973956023 388.156612176128 " transform="rotate(21, 400, 400)"></path><path d="M330.9999928491766 411.1130676333873C332.56817471086487 408.7843175687802 340.4090840193063 393.51806714524474 343.5454477426829 392.48306711653044C346.68181146605946 391.4480670878162 352.9545389128126 402.19795374968936 356.0909026361891 402.8330674036731C359.2272663595657 403.46818105765686 365.49999380631886 396.4113626800596 368.63635752969543 397.5639763484005C371.77272125307195 398.7165900167414 378.0454486998251 413.2771586025171 381.1818124232017 412.05397675040024C384.31817614657825 410.8307948982834 390.5909035933314 388.531248825076 393.727267316708 387.77852153146557C396.86363104008456 387.0257942378552 403.13635848683765 405.5146583871601 406.2727222102142 406.0321584015172C409.4090859335908 406.5496584158744 415.68181338034395 391.142271624787 418.81817710372053 391.9185216463227C421.95454082709705 392.6947716678584 428.2272682738502 412.45386312513074 431.3636319972268 412.24215857380284C434.49999572060335 412.03045402247494 440.7727231673565 390.3660216032513 443.9090868907331 390.22488523569933C447.0454506141096 390.0837488681474 453.3181780608628 411.16011308923794 456.4545417842393 411.1130676333873C459.5909055076159 411.06602217753664 467.43181481605734 392.5065898444558 468.99999667774557 389.84852158889413 " transform="rotate(18, 400, 400)"></path><path d="M342.499996584112 409.26089271445807C343.80681480218556 407.3202676606188 350.34090589255345 394.5983923076726 352.95454232870054 393.7358922837441C355.5681787648477 392.8733922598155 360.795451637142 401.83163114470983 363.4090880732891 402.36089252302963C366.0227245094363 402.89015390134944 371.24999738173057 397.0094719200183 373.8636338178777 397.9699833103024C376.4772702540248 398.9304947005865 381.7045431263191 411.0643018553996 384.31817956246624 410.0449836453022C386.9318159986134 409.0256654352048 392.1590888709077 390.44271037419867 394.77272530705477 389.81543762952333C397.386361743202 389.188164884848 402.61363461549627 404.59555167593544 405.22727105164336 405.0268016878997C407.8409074877905 405.458051699864 413.0681803600848 392.6185627072912 415.68181679623194 393.2654377252376C418.2954532323791 393.912312743184 423.5227261046733 410.37822229091097 426.13636254082047 410.201801831471C428.7499989769676 410.0253813720311 433.9772718492619 391.9716876893447 436.59090828540906 391.8540740497181C439.2045447215562 391.73646041009147 444.4318175938505 409.30009726100025 447.04545402999764 409.26089271445807C449.65909046614473 409.2216881679159 456.19318155651257 393.75549455701514 457.4999997745862 391.54043767738045 " transform="rotate(15, 400, 400)"></path><path d="M353.9999965043502 407.40871111980863C355.04545107880904 405.8562110767372 360.2727239511033 395.67871079438027 362.363633100021 394.98871077523745C364.4545422489387 394.2987107560946 368.63636054677414 401.46530186401003 370.72726969569186 401.8887109666659C372.8181788446096 402.31212006932174 376.99999714244495 397.6075744842569 379.09090629136267 398.3759835964841C381.1818154402804 399.1443927087114 385.3636337381158 408.85143843256185 387.45454288703354 408.03598386448397C389.54545203595126 407.220529296406 393.7272703337867 392.3541652476011 395.8181794827044 391.8523470518609C397.9090886316221 391.3505288561206 402.09090692945756 403.67643828899054 404.1818160783753 404.0214382985619C406.272725227293 404.36643830813335 410.45454352512843 394.0948471140751 412.5454526740461 394.61234712843225C414.6363618229638 395.12984714278934 418.81818012079924 408.302574780971 420.90908926971696 408.16143841341903C422.9999984186346 408.0203020458671 427.18181671647005 393.57734709971794 429.27272586538777 393.4832561880167C431.3636350143055 393.3891652763154 435.5454533121409 407.4400747570424 437.63636246105864 407.40871111980863C439.72727160997636 407.37734748257486 444.95454448227065 395.0043925938543 445.9999990567295 393.23234709014656 " transform="rotate(12, 400, 400)"></path><path d="M365.4999964245883 405.55653333985646C366.28408735543246 404.3921583075529 370.20454200965315 396.7590330957852 371.77272387134144 396.2415330814281C373.34090573302973 395.72403306707093 376.4772694564063 401.09897639800755 378.0454513180946 401.4165332249994C379.6136331797828 401.7340900519913 382.7499969031594 398.20568086319264 384.31817876484774 398.7819876973631C385.886360626536 399.35829453153355 389.02272434991255 406.6385788244214 390.59090621160084 406.02698789836296C392.1590880732891 405.4153969723045 395.2954517966657 394.26562393570083 396.863633658354 393.8892602888956C398.4318155200423 393.5128966420905 401.56817924341885 402.7573287167429 403.1363611051071 403.01607872392145C404.70454296679543 403.2748287311 407.840906690172 395.57113533555633 409.40908855186024 395.9592603463242C410.9772704135485 396.34738535709204 414.1136341369251 406.2269310857282 415.6818159986134 406.12107881006426C417.2499978603017 406.0152265344003 420.38636158367825 395.1830103247885 421.95454344536654 395.1124421410125C423.52272530705477 395.04187395723653 426.6590890304314 405.5800560677818 428.2272708921197 405.55653333985646C429.7954527538079 405.53301061193116 433.71590740802867 396.25329444539074 434.4999983388728 394.9242603176099 " transform="rotate(9, 400, 400)"></path><path d="M377.0000001595237 403.70435555990434C377.52272744675315 402.92810553836864 380.1363638829003 397.83935539719016 381.1818184573591 397.4943553876187C382.22727303181796 397.1493553780473 384.3181821807357 400.732650932005 385.36363675519453 400.94435548333297C386.4090913296534 401.15606003466087 388.5000004785711 398.8037872421284 389.54545505302997 399.1879917982421C390.5909096274888 399.5721963543557 392.68181877640654 404.4257192162809 393.7272733508654 404.01799193224196C394.77272792532426 403.61026464820304 396.863637074242 396.1770826238006 397.90909164870084 395.92617352593044C398.9545462231597 395.6752644280603 401.0454553720774 401.83821914449527 402.09090994653627 402.010719149281C403.13636452099513 402.1832191540667 405.22727366991285 397.0474235570376 406.2727282443717 397.3061735642161C407.31818281883056 397.5649235713947 409.4090919677483 404.1512873904855 410.45454654220714 404.0807192067095C411.50000111666594 404.01015102293354 413.59091026558366 396.78867354985897 414.6363648400425 396.7416280940083C415.6818194145014 396.69458263815767 417.7727285634191 403.72003737852117 418.81818313787795 403.70435555990434C419.8636377123368 403.6886737412874 422.47727414848396 397.50219629692714 423.0000014357134 396.61617354507325 " transform="rotate(6, 400, 400)"></path><path d="M388.5000000797619 401.85217777995217C388.7613637233766 401.4640527691843 390.0681819414501 398.9196776985951 390.59090922867955 398.74717769380936C391.113636515909 398.57467768902364 392.15909109036784 400.36632546600254 392.68181837759727 400.4721777416665C393.2045456648267 400.57803001733043 394.25000023928555 399.40189362106423 394.772727526515 399.593995899121C395.2954548137444 399.78609817717785 396.3409093882033 402.21285960814043 396.8636366754327 402.008995966121C397.38636396266213 401.8051323241015 398.431818537121 398.08854131190026 398.9545458243504 397.9630867629652C399.47727311157985 397.8376322140301 400.5227276860387 400.91910957224763 401.04545497326814 401.00535957464047C401.56818226049757 401.09160957703335 402.6136368349564 398.52371177851876 403.13636412218585 398.65308678210806C403.6590914094153 398.78246178569736 404.70454598387414 402.0756436952427 405.22727327110357 402.0403596033548C405.750000558333 402.00507551146677 406.79545513279186 398.3943367749295 407.31818242002123 398.37081404700416C407.8409097072507 398.34729131907886 408.8863642817096 401.8600186892606 409.40909156893895 401.85217777995217C409.93181885616843 401.8443368706437 411.238637074242 398.7510981484636 411.50000071785666 398.3080867725366 " transform="rotate(3, 400, 400)"></path></g></svg>